# xmcd
#
# Track frame offsets: 
#        150
#        13762
#        27233
#        46786
#        63504
#        76837
#        94253
#        111894
#        128202
#        145088
#        157164
#        172502
#        187807
#        206379
#        225505
#        244646
#
# Disc length: 3454 seconds
#
# Revision: 0
# Processed by: cddbd v1.5.2PL0 Copyright (c) Steve Scherf et al.
# Submitted via: ExactAudioCopy v1.0b3
#
DISCID=c10d7c10
DTITLE=Latha Valpola - Songs
DYEAR=1900
DGENRE=Sinhala
TTITLE0=Seenu Handin
TTITLE1=Ranwan Tharuwak
TTITLE2=Namo Mariyani
TTITLE3=Samaye Kurullo
TTITLE4=Jesu Rajanani
TTITLE5=Akasaye Tharumal
TTITLE6=Surageeyayai Bilindu Handai
TTITLE7=Kalakata Pera
TTITLE8=Suralowe Piyani
TTITLE9=Sura Kumaru Mage
TTITLE10=Supun Sandak
TTITLE11=Thutu Ganvee
TTITLE12=Raa Tharu Blabalanawa
TTITLE13=Apa Sithanana Pathana
TTITLE14=Loketa Denna Beda
TTITLE15=Naththal Da Seetha Rayeka
EXTD=
EXTT0=
EXTT1=
EXTT2=
EXTT3=
EXTT4=
EXTT5=
EXTT6=
EXTT7=
EXTT8=
EXTT9=
EXTT10=
EXTT11=
EXTT12=
EXTT13=
EXTT14=
EXTT15=
PLAYORDER=
